<svg data-v-423bf9ae="" xmlns="http://www.w3.org/2000/svg" viewBox="0 0 369.6644118894529 60" class="font"><!----><!----><!----><g data-v-423bf9ae="" id="0fcfd4d7-1c8e-469f-852d-3e16b7ccb9a9" fill="black" transform="matrix(4.474272981560021,0,0,4.474272981560021,-3.7136401441068188,-12.662192196454924)"><path d="M0.83 10.82L0.83 10.82L0.83 10.82Q0.83 10.53 1.02 10.53L1.02 10.53L1.02 10.53Q1.20 10.53 1.25 10.67L1.25 10.67L1.25 10.67Q1.39 11.00 1.51 11.25L1.51 11.25L1.51 11.25Q1.62 11.49 1.89 11.85L1.89 11.85L1.89 11.85Q2.16 12.21 2.46 12.44L2.46 12.44L2.46 12.44Q2.77 12.67 3.25 12.84L3.25 12.84L3.25 12.84Q3.74 13.01 4.31 13.01L4.31 13.01L4.31 13.01Q5.36 13.01 6.00 12.45L6.00 12.45L6.00 12.45Q6.64 11.90 6.64 11.00L6.64 11.00L6.64 11.00Q6.64 10.35 6.20 9.90L6.20 9.90L6.20 9.90Q5.77 9.46 5.21 9.27L5.21 9.27L5.21 9.27Q4.65 9.09 3.79 8.77L3.79 8.77L3.79 8.77Q2.93 8.46 2.38 8.13L2.38 8.13L2.38 8.13Q1.11 7.38 1.11 6.08L1.11 6.08L1.11 6.08Q1.11 4.83 2.01 4.08L2.01 4.08L2.01 4.08Q2.91 3.33 4.35 3.33L4.35 3.33L4.35 3.33Q4.89 3.33 5.62 3.56L5.62 3.56L5.62 3.56Q6.36 3.79 6.37 3.79L6.37 3.79L6.37 3.79Q6.41 3.79 6.52 3.74L6.52 3.74L6.52 3.74Q6.64 3.68 6.69 3.68L6.69 3.68L6.69 3.68Q6.87 3.68 6.90 3.79L6.90 3.79L6.90 3.79Q7.20 5.49 7.20 5.70L7.20 5.70L7.20 5.70Q7.20 6.09 7 6.09L7 6.09L7 6.09Q6.87 6.09 6.80 5.89L6.80 5.89L6.80 5.89Q6.64 5.49 6.48 5.24L6.48 5.24L6.48 5.24Q6.31 4.98 6.24 4.91L6.24 4.91L6.24 4.91Q6.17 4.84 5.88 4.58L5.88 4.58L5.88 4.58Q5.12 3.91 4.05 3.91L4.05 3.91L4.05 3.91Q3.18 3.91 2.59 4.33L2.59 4.33L2.59 4.33Q2.00 4.75 2.00 5.46L2.00 5.46L2.00 5.46Q2.00 6.09 2.35 6.50L2.35 6.50L2.35 6.50Q2.69 6.90 3.26 7.13L3.26 7.13L3.26 7.13Q3.84 7.35 4.47 7.55L4.47 7.55L4.47 7.55Q5.10 7.74 5.80 8.09L5.80 8.09L5.80 8.09Q6.51 8.44 6.97 8.93L6.97 8.93L6.97 8.93Q7.53 9.53 7.53 10.43L7.53 10.43L7.53 10.43Q7.53 11.90 6.59 12.76L6.59 12.76L6.59 12.76Q5.66 13.62 4.27 13.62L4.27 13.62L4.27 13.62Q3.30 13.62 2.72 13.52L2.72 13.52L2.72 13.52Q2.13 13.41 1.51 13.09L1.51 13.09L1.51 13.09Q1.33 12.98 1.08 12.00L1.08 12.00L1.08 12.00Q0.83 11.02 0.83 10.82ZM9.02 12.25L9.02 12.25L9.02 12.25Q9.02 11.75 9.23 11.40L9.23 11.40L9.23 11.40Q9.44 11.06 9.86 10.87L9.86 10.87L9.86 10.87Q10.29 10.68 10.75 10.57L10.75 10.57L10.75 10.57Q11.21 10.46 11.87 10.35L11.87 10.35L11.87 10.35Q11.96 10.33 12.00 10.32L12.00 10.32L12.00 10.32Q12.04 10.32 12.11 10.31L12.11 10.31L12.11 10.31Q12.18 10.30 12.24 10.29L12.24 10.29L12.24 10.29Q12.33 10.28 12.37 10.26L12.37 10.26L12.37 10.26Q12.40 10.25 12.44 10.20L12.44 10.20L12.44 10.20Q12.47 10.15 12.47 10.07L12.47 10.07L12.47 10.07Q12.47 9.93 12.49 9.68L12.49 9.68L12.49 9.68Q12.50 9.44 12.50 9.34L12.50 9.34L12.50 9.34Q12.50 8.54 12.04 8.18L12.04 8.18L12.04 8.18Q11.58 7.83 11.14 7.83L11.14 7.83L11.14 7.83Q10.14 7.83 10.14 8.67L10.14 8.67L10.14 8.67Q10.14 8.78 10.16 8.95L10.16 8.95L10.16 8.95Q10.19 9.11 10.19 9.17L10.19 9.17L10.19 9.17Q10.19 9.45 9.94 9.45L9.94 9.45L9.94 9.45Q9.86 9.45 9.73 9.43L9.73 9.43L9.73 9.43Q9.60 9.41 9.44 9.36L9.44 9.36L9.44 9.36Q9.28 9.31 9.18 9.19L9.18 9.19L9.18 9.19Q9.07 9.07 9.07 8.90L9.07 8.90L9.07 8.90Q9.07 8.36 9.81 7.86L9.81 7.86L9.81 7.86Q10.54 7.36 11.42 7.36L11.42 7.36L11.42 7.36Q12.03 7.36 12.45 7.50L12.45 7.50L12.45 7.50Q12.87 7.64 13.07 7.82L13.07 7.82L13.07 7.82Q13.27 7.99 13.38 8.28L13.38 8.28L13.38 8.28Q13.50 8.57 13.51 8.73L13.51 8.73L13.51 8.73Q13.52 8.89 13.52 9.13L13.52 9.13L13.52 9.13Q13.52 10.14 13.49 10.72L13.49 10.72L13.49 10.72Q13.45 11.30 13.45 11.73L13.45 11.73L13.45 11.73Q13.45 12.25 13.57 12.55L13.57 12.55L13.57 12.55Q13.68 12.85 13.83 12.94L13.83 12.94L13.83 12.94Q13.99 13.02 14.14 13.03L14.14 13.03L14.14 13.03Q14.29 13.05 14.41 13.09L14.41 13.09L14.41 13.09Q14.52 13.13 14.52 13.26L14.52 13.26L14.52 13.26Q14.52 13.55 13.64 13.55L13.64 13.55L13.64 13.55Q13.27 13.55 13.01 13.36L13.01 13.36L13.01 13.36Q12.75 13.16 12.64 12.97L12.64 12.97L12.64 12.97Q12.53 12.78 12.52 12.78L12.52 12.78L12.52 12.78Q12.50 12.78 12.40 12.87L12.40 12.87L12.40 12.87Q12.31 12.96 12.13 13.09L12.13 13.09L12.13 13.09Q11.96 13.22 11.74 13.34L11.74 13.34L11.74 13.34Q11.52 13.47 11.23 13.56L11.23 13.56L11.23 13.56Q10.95 13.65 10.67 13.65L10.67 13.65L10.67 13.65Q9.77 13.65 9.37 13.23L9.37 13.23L9.37 13.23Q9.02 12.88 9.02 12.25ZM10.11 12.04L10.11 12.04L10.11 12.04Q10.11 12.52 10.39 12.80L10.39 12.80L10.39 12.80Q10.67 13.09 11.19 13.09L11.19 13.09L11.19 13.09Q11.55 13.09 11.81 12.98L11.81 12.98L11.81 12.98Q12.07 12.87 12.19 12.73L12.19 12.73L12.19 12.73Q12.32 12.59 12.39 12.36L12.39 12.36L12.39 12.36Q12.46 12.12 12.47 12.00L12.47 12.00L12.47 12.00Q12.47 11.87 12.47 11.66L12.47 11.66L12.47 10.65L12.47 10.65Q12.47 10.53 12.38 10.53L12.38 10.53L12.38 10.53Q12.35 10.53 12.31 10.54L12.31 10.54L12.31 10.54Q12.26 10.56 12.24 10.56L12.24 10.56L12.24 10.56Q11.91 10.61 11.83 10.63L11.83 10.63L11.83 10.63Q11.75 10.64 11.44 10.71L11.44 10.71L11.44 10.71Q11.13 10.78 11.01 10.84L11.01 10.84L11.01 10.84Q10.89 10.89 10.67 11.01L10.67 11.01L10.67 11.01Q10.46 11.13 10.37 11.26L10.37 11.26L10.37 11.26Q10.28 11.40 10.19 11.60L10.19 11.60L10.19 11.60Q10.11 11.80 10.11 12.04ZM16.44 5.63L16.44 5.63L16.44 5.63Q16.23 5.36 16.23 5.17L16.23 5.17L16.23 5.17Q16.23 4.97 16.44 4.71L16.44 4.71L16.44 4.71Q16.66 4.45 16.88 4.45L16.88 4.45L16.88 4.45Q17.12 4.45 17.34 4.70L17.34 4.70L17.34 4.70Q17.56 4.94 17.56 5.17L17.56 5.17L17.56 5.17Q17.56 5.39 17.31 5.65L17.31 5.65L17.31 5.65Q17.07 5.91 16.94 5.91L16.94 5.91L16.94 5.91Q16.66 5.91 16.44 5.63ZM14.92 15.36L14.92 15.36L14.92 15.36Q14.92 14.95 15.23 14.95L15.23 14.95L15.23 14.95Q15.39 14.95 15.67 15.25L15.67 15.25L15.67 15.25Q15.95 15.55 16.04 15.55L16.04 15.55L16.04 15.55Q16.23 15.55 16.30 15.08L16.30 15.08L16.30 15.08Q16.37 14.62 16.37 13.30L16.37 13.30L16.37 9.04L16.37 9.04Q16.37 8.88 16.34 8.77L16.34 8.77L16.34 8.77Q16.32 8.67 16.26 8.52L16.26 8.52L16.26 8.52Q16.20 8.37 16.01 8.29L16.01 8.29L16.01 8.29Q15.82 8.22 15.54 8.22L15.54 8.22L15.54 8.22Q15.32 8.22 15.32 8.08L15.32 8.08L15.32 8.08Q15.32 7.99 15.43 7.96L15.43 7.96L15.43 7.96Q15.55 7.92 15.88 7.83L15.88 7.83L15.88 7.83Q16.21 7.73 16.55 7.57L16.55 7.57L16.55 7.57Q17.16 7.28 17.21 7.28L17.21 7.28L17.21 7.28Q17.37 7.28 17.37 7.60L17.37 7.60L17.37 7.76L17.37 7.76Q17.37 7.87 17.36 8.11L17.36 8.11L17.36 8.11Q17.35 8.34 17.35 8.41L17.35 8.41L17.35 12.95L17.35 12.95Q17.35 13.72 17.21 14.41L17.21 14.41L17.21 14.41Q17.07 15.09 16.63 15.67L16.63 15.67L16.63 15.67Q16.18 16.24 15.50 16.24L15.50 16.24L15.50 16.24Q14.95 16.24 14.95 15.86L14.95 15.86L14.95 15.86Q14.95 15.79 14.94 15.61L14.94 15.61L14.94 15.61Q14.92 15.43 14.92 15.36ZM19.08 10.72L19.08 10.72L19.08 10.72Q19.08 9.32 19.87 8.36L19.87 8.36L19.87 8.36Q20.66 7.39 21.92 7.39L21.92 7.39L21.92 7.39Q22.51 7.39 22.99 7.60L22.99 7.60L22.99 7.60Q23.48 7.81 23.74 8.11L23.74 8.11L23.74 8.11Q24.01 8.41 24.19 8.75L24.19 8.75L24.19 8.75Q24.37 9.09 24.44 9.30L24.44 9.30L24.44 9.30Q24.50 9.52 24.50 9.62L24.50 9.62L24.50 9.62Q24.50 9.87 23.93 9.87L23.93 9.87L20.75 9.87L20.33 9.87L20.33 9.87Q20.22 9.87 20.19 9.89L20.19 9.89L20.19 9.89Q20.17 9.91 20.17 10.02L20.17 10.02L20.17 10.02Q20.17 11.34 20.88 12.10L20.88 12.10L20.88 12.10Q21.59 12.85 22.54 12.85L22.54 12.85L22.54 12.85Q23.13 12.85 23.74 12.54L23.74 12.54L23.74 12.54Q24.35 12.22 24.37 12.22L24.37 12.22L24.37 12.22Q24.51 12.22 24.51 12.35L24.51 12.35L24.51 12.35Q24.51 12.40 24.42 12.55L24.42 12.55L24.42 12.55Q24.32 12.70 24.11 12.89L24.11 12.89L24.11 12.89Q23.90 13.09 23.62 13.27L23.62 13.27L23.62 13.27Q23.34 13.45 22.92 13.58L22.92 13.58L22.92 13.58Q22.50 13.71 22.04 13.71L22.04 13.71L22.04 13.71Q20.80 13.71 19.94 12.95L19.94 12.95L19.94 12.95Q19.08 12.19 19.08 10.72ZM20.26 9.34L20.26 9.34L20.26 9.34Q20.26 9.53 20.44 9.53L20.44 9.53L20.44 9.53Q20.82 9.53 21.83 9.49L21.83 9.49L21.83 9.49Q22.83 9.45 22.90 9.45L22.90 9.45L22.90 9.45Q23.10 9.45 23.15 9.41L23.15 9.41L23.15 9.41Q23.20 9.38 23.20 9.28L23.20 9.28L23.20 9.28Q23.20 8.86 22.81 8.30L22.81 8.30L22.81 8.30Q22.41 7.74 21.69 7.74L21.69 7.74L21.69 7.74Q21.01 7.74 20.64 8.29L20.64 8.29L20.64 8.29Q20.26 8.85 20.26 9.34ZM25.61 10.72L25.61 10.72L25.61 10.72Q25.61 9.32 26.40 8.36L26.40 8.36L26.40 8.36Q27.19 7.39 28.45 7.39L28.45 7.39L28.45 7.39Q29.04 7.39 29.52 7.60L29.52 7.60L29.52 7.60Q30.00 7.81 30.27 8.11L30.27 8.11L30.27 8.11Q30.53 8.41 30.72 8.75L30.72 8.75L30.72 8.75Q30.90 9.09 30.96 9.30L30.96 9.30L30.96 9.30Q31.02 9.52 31.02 9.62L31.02 9.62L31.02 9.62Q31.02 9.87 30.45 9.87L30.45 9.87L27.27 9.87L26.85 9.87L26.85 9.87Q26.74 9.87 26.72 9.89L26.72 9.89L26.72 9.89Q26.70 9.91 26.70 10.02L26.70 10.02L26.70 10.02Q26.70 11.34 27.40 12.10L27.40 12.10L27.40 12.10Q28.11 12.85 29.06 12.85L29.06 12.85L29.06 12.85Q29.65 12.85 30.26 12.54L30.26 12.54L30.26 12.54Q30.87 12.22 30.90 12.22L30.90 12.22L30.90 12.22Q31.04 12.22 31.04 12.35L31.04 12.35L31.04 12.35Q31.04 12.40 30.94 12.55L30.94 12.55L30.94 12.55Q30.84 12.70 30.63 12.89L30.63 12.89L30.63 12.89Q30.42 13.09 30.14 13.27L30.14 13.27L30.14 13.27Q29.86 13.45 29.44 13.58L29.44 13.58L29.44 13.58Q29.02 13.71 28.56 13.71L28.56 13.71L28.56 13.71Q27.33 13.71 26.47 12.95L26.47 12.95L26.47 12.95Q25.61 12.19 25.61 10.72ZM26.78 9.34L26.78 9.34L26.78 9.34Q26.78 9.53 26.96 9.53L26.96 9.53L26.96 9.53Q27.34 9.53 28.35 9.49L28.35 9.49L28.35 9.49Q29.36 9.45 29.43 9.45L29.43 9.45L29.43 9.45Q29.62 9.45 29.67 9.41L29.67 9.41L29.67 9.41Q29.72 9.38 29.72 9.28L29.72 9.28L29.72 9.28Q29.72 8.86 29.33 8.30L29.33 8.30L29.33 8.30Q28.94 7.74 28.21 7.74L28.21 7.74L28.21 7.74Q27.54 7.74 27.16 8.29L27.16 8.29L27.16 8.29Q26.78 8.85 26.78 9.34ZM31.79 3.74L31.79 3.74L31.79 3.74Q31.79 3.65 31.81 3.61L31.81 3.61L31.81 3.61Q31.84 3.57 31.91 3.54L31.91 3.54L31.91 3.54Q31.98 3.50 32.07 3.48L32.07 3.48L32.07 3.48Q32.16 3.46 32.35 3.39L32.35 3.39L32.35 3.39Q32.55 3.33 32.75 3.25L32.75 3.25L32.75 3.25Q32.86 3.21 33.10 3.09L33.10 3.09L33.10 3.09Q33.33 2.98 33.51 2.92L33.51 2.92L33.51 2.92Q33.68 2.86 33.81 2.86L33.81 2.86L33.81 2.86Q33.98 2.86 33.98 3.12L33.98 3.12L33.98 3.12Q33.98 3.18 33.95 3.45L33.95 3.45L33.95 3.45Q33.92 3.72 33.89 4.21L33.89 4.21L33.89 4.21Q33.87 4.69 33.87 5.25L33.87 5.25L33.87 6.03L33.87 6.03Q33.87 6.69 33.85 7.15L33.85 7.15L33.85 7.15Q33.84 7.60 33.84 7.90L33.84 7.90L33.84 12.07L33.84 12.07Q33.84 12.36 33.89 12.55L33.89 12.55L33.89 12.55Q33.94 12.74 34.21 12.91L34.21 12.91L34.21 12.91Q34.48 13.09 34.97 13.09L34.97 13.09L34.97 13.09Q35.04 13.09 35.10 13.16L35.10 13.16L35.10 13.16Q35.15 13.23 35.15 13.30L35.15 13.30L35.15 13.30Q35.15 13.50 34.72 13.50L34.72 13.50L34.72 13.50Q34.59 13.50 34.07 13.45L34.07 13.45L34.07 13.45Q33.54 13.40 33.31 13.40L33.31 13.40L33.31 13.40Q32.94 13.40 32.61 13.45L32.61 13.45L32.61 13.45Q32.28 13.51 32.17 13.51L32.17 13.51L32.17 13.51Q32.07 13.51 32.01 13.46L32.01 13.46L32.01 13.46Q31.95 13.41 31.95 13.37L31.95 13.37L31.95 13.37Q31.95 13.26 32.01 13.21L32.01 13.21L32.01 13.21Q32.07 13.16 32.22 13.13L32.22 13.13L32.22 13.13Q32.37 13.09 32.42 13.06L32.42 13.06L32.42 13.06Q32.66 12.95 32.73 12.75L32.73 12.75L32.73 12.75Q32.80 12.56 32.80 12.15L32.80 12.15L32.80 12.15Q32.80 12.10 32.80 11.98L32.80 11.98L32.80 11.98Q32.79 11.86 32.79 11.79L32.79 11.79L32.79 10.75L32.79 10.75Q32.79 10.23 32.82 8.00L32.82 8.00L32.82 8.00Q32.84 5.77 32.84 4.80L32.84 4.80L32.84 4.80Q32.84 4.48 32.74 4.22L32.74 4.22L32.74 4.22Q32.63 3.96 32.51 3.91L32.51 3.91L32.51 3.91Q32.38 3.85 31.95 3.85L31.95 3.85L31.95 3.85Q31.79 3.85 31.79 3.74ZM38.68 13.33L38.68 13.33L38.68 13.33Q38.68 13.13 38.89 13.06L38.89 13.06L38.89 13.06Q39.34 12.89 39.68 12.31L39.68 12.31L39.68 12.31Q40.01 11.73 41.34 8.83L41.34 8.83L41.34 8.83Q42.71 5.87 43.76 3.63L43.76 3.63L43.76 3.63Q43.86 3.42 43.94 3.36L43.94 3.36L43.94 3.36Q44.02 3.30 44.18 3.30L44.18 3.30L44.18 3.30Q44.31 3.30 44.35 3.36L44.35 3.36L44.35 3.36Q44.39 3.42 44.53 3.82L44.53 3.82L44.53 3.82Q44.62 4.06 44.68 4.23L44.68 4.23L44.68 4.23Q44.74 4.40 44.88 4.77L44.88 4.77L44.88 4.77Q45.02 5.15 45.19 5.56L45.19 5.56L45.19 5.56Q45.64 6.66 46.74 9.22L46.74 9.22L46.74 9.22Q47.84 11.77 47.94 11.98L47.94 11.98L47.94 11.98Q48.17 12.46 48.47 12.71L48.47 12.71L48.47 12.71Q48.76 12.95 48.98 12.97L48.98 12.97L48.98 12.97Q49.20 12.99 49.34 13.04L49.34 13.04L49.34 13.04Q49.49 13.09 49.49 13.26L49.49 13.26L49.49 13.26Q49.49 13.47 49.11 13.47L49.11 13.47L49.11 13.47Q48.96 13.47 48.51 13.43L48.51 13.43L48.51 13.43Q48.06 13.38 47.85 13.38L47.85 13.38L47.85 13.38Q47.59 13.38 47.17 13.41L47.17 13.41L47.17 13.41Q46.75 13.44 46.55 13.44L46.55 13.44L46.55 13.44Q46.12 13.44 46.00 13.40L46.00 13.40L46.00 13.40Q45.88 13.37 45.88 13.24L45.88 13.24L45.88 13.24Q45.88 13.15 45.99 13.08L45.99 13.08L45.99 13.08Q46.10 13.02 46.23 13.00L46.23 13.00L46.23 13.00Q46.35 12.98 46.47 12.87L46.47 12.87L46.47 12.87Q46.58 12.77 46.58 12.59L46.58 12.59L46.58 12.59Q46.58 12.28 46.23 11.33L46.23 11.33L46.23 11.33Q45.88 10.37 45.64 9.93L45.64 9.93L45.64 9.93Q45.51 9.69 45.07 9.69L45.07 9.69L45.07 9.69Q45.00 9.69 44.45 9.70L44.45 9.70L44.45 9.70Q43.90 9.72 43.37 9.72L43.37 9.72L42.63 9.72L42.63 9.72Q42 9.72 41.84 9.79L41.84 9.79L41.84 9.79Q41.68 9.86 41.55 10.12L41.55 10.12L41.55 10.12Q41.47 10.30 41.27 10.70L41.27 10.70L41.27 10.70Q41.08 11.10 41.01 11.26L41.01 11.26L41.01 11.26Q40.94 11.41 40.83 11.65L40.83 11.65L40.83 11.65Q40.73 11.90 40.69 12.05L40.69 12.05L40.69 12.05Q40.66 12.19 40.66 12.31L40.66 12.31L40.66 12.31Q40.66 12.63 40.82 12.80L40.82 12.80L40.82 12.80Q40.98 12.96 41.17 12.98L41.17 12.98L41.17 12.98Q41.37 13.01 41.53 13.06L41.53 13.06L41.53 13.06Q41.69 13.12 41.69 13.26L41.69 13.26L41.69 13.26Q41.69 13.36 41.65 13.40L41.65 13.40L41.65 13.40Q41.61 13.45 41.45 13.45L41.45 13.45L41.45 13.45Q41.37 13.45 40.97 13.45L40.97 13.45L40.97 13.45Q40.57 13.44 40.29 13.44L40.29 13.44L40.29 13.44Q39.98 13.44 39.60 13.47L39.60 13.47L39.60 13.47Q39.21 13.50 39.09 13.50L39.09 13.50L39.09 13.50Q38.68 13.50 38.68 13.33ZM42.20 8.71L42.20 8.71L42.20 8.71Q42.20 8.89 42.32 8.93L42.32 8.93L42.32 8.93Q42.45 8.97 42.91 8.97L42.91 8.97L43.34 8.97L44.67 8.96L44.67 8.96Q45.22 8.96 45.22 8.74L45.22 8.74L45.22 8.74Q45.22 8.55 44.53 7.01L44.53 7.01L44.53 7.01Q43.85 5.46 43.67 5.46L43.67 5.46L43.67 5.46Q43.54 5.46 42.87 7.01L42.87 7.01L42.87 7.01Q42.20 8.55 42.20 8.71ZM50.05 3.68L50.05 3.68L50.05 3.68Q50.05 3.57 50.20 3.49L50.20 3.49L50.20 3.49Q50.34 3.42 50.62 3.35L50.62 3.35L50.62 3.35Q50.89 3.28 51.02 3.22L51.02 3.22L51.02 3.22Q51.90 2.83 52.02 2.83L52.02 2.83L52.02 2.83Q52.21 2.83 52.21 3.15L52.21 3.15L52.21 3.15Q52.21 3.22 52.16 3.49L52.16 3.49L52.16 3.49Q52.11 3.75 52.11 4.02L52.11 4.02L52.11 4.02Q52.09 5.28 52.07 6.15L52.07 6.15L52.07 6.15Q52.05 7.03 52.04 7.33L52.04 7.33L52.04 7.33Q52.02 7.63 52.02 7.83L52.02 7.83L52.02 7.83Q52.01 8.02 52.01 8.13L52.01 8.13L52.01 8.13Q52.01 8.40 52.12 8.40L52.12 8.40L52.12 8.40Q52.15 8.40 52.41 8.14L52.41 8.14L52.41 8.14Q52.67 7.88 53.12 7.62L53.12 7.62L53.12 7.62Q53.58 7.36 54.10 7.36L54.10 7.36L54.10 7.36Q55.23 7.36 55.86 8.04L55.86 8.04L55.86 8.04Q56.49 8.71 56.49 10.12L56.49 10.12L56.49 12.15L56.49 12.15Q56.49 12.29 56.52 12.45L56.52 12.45L56.52 12.45Q56.55 12.61 56.66 12.78L56.66 12.78L56.66 12.78Q56.77 12.95 56.95 12.96L56.95 12.96L56.95 12.96Q57.71 13.03 57.71 13.26L57.71 13.26L57.71 13.26Q57.71 13.48 57.27 13.48L57.27 13.48L57.27 13.48Q57.20 13.48 56.73 13.45L56.73 13.45L56.73 13.45Q56.27 13.41 56.10 13.41L56.10 13.41L56.10 13.41Q55.97 13.41 55.52 13.43L55.52 13.43L55.52 13.43Q55.06 13.45 55.02 13.45L55.02 13.45L55.02 13.45Q54.70 13.45 54.70 13.31L54.70 13.31L54.70 13.31Q54.70 13.16 54.82 13.11L54.82 13.11L54.82 13.11Q54.94 13.06 55.08 13.06L55.08 13.06L55.08 13.06Q55.22 13.06 55.34 12.91L55.34 12.91L55.34 12.91Q55.45 12.75 55.45 12.43L55.45 12.43L55.45 12.43Q55.45 12.38 55.46 12.29L55.46 12.29L55.46 12.29Q55.47 12.21 55.47 12.06L55.47 12.06L55.47 12.06Q55.47 11.91 55.48 11.41L55.48 11.41L55.48 11.41Q55.48 10.91 55.48 10.11L55.48 10.11L55.48 10.11Q55.48 9.25 54.96 8.63L54.96 8.63L54.96 8.63Q54.45 8.01 53.75 8.01L53.75 8.01L53.75 8.01Q53.09 8.01 52.39 8.55L52.39 8.55L52.39 8.55Q52.14 8.75 52.07 9.19L52.07 9.19L52.07 9.19Q52.00 9.63 52.00 11.14L52.00 11.14L52.00 11.47L52.00 11.47Q52.00 12.10 52.10 12.48L52.10 12.48L52.10 12.48Q52.21 12.87 52.56 13.02L52.56 13.02L52.56 13.02Q52.67 13.06 52.86 13.08L52.86 13.08L52.86 13.08Q53.06 13.09 53.17 13.13L53.17 13.13L53.17 13.13Q53.27 13.16 53.27 13.27L53.27 13.27L53.27 13.27Q53.27 13.44 53.12 13.44L53.12 13.44L52.75 13.43L52.75 13.43Q52.39 13.41 52.02 13.39L52.02 13.39L52.02 13.39Q51.65 13.37 51.62 13.37L51.62 13.37L51.62 13.37Q51.52 13.37 51.13 13.40L51.13 13.40L51.13 13.40Q50.74 13.44 50.62 13.44L50.62 13.44L50.62 13.44Q50.44 13.44 50.35 13.42L50.35 13.42L50.35 13.42Q50.26 13.40 50.25 13.38L50.25 13.38L50.25 13.38Q50.25 13.36 50.25 13.30L50.25 13.30L50.25 13.30Q50.25 13.16 50.41 13.12L50.41 13.12L50.41 13.12Q50.82 13.01 50.94 12.76L50.94 12.76L50.94 12.76Q51.06 12.52 51.06 12.04L51.06 12.04L51.11 7.27L51.11 6.58L51.11 6.58Q51.11 4.47 51.00 4.13L51.00 4.13L51.00 4.13Q50.90 3.84 50.53 3.84L50.53 3.84L50.53 3.84Q50.40 3.84 50.34 3.84L50.34 3.84L50.29 3.82L50.29 3.82Q50.05 3.82 50.05 3.68ZM58.42 8.01L58.42 8.01L58.42 8.01Q58.42 7.88 58.59 7.82L58.59 7.82L58.59 7.82Q58.76 7.76 59.09 7.69L59.09 7.69L59.09 7.69Q59.43 7.62 59.65 7.52L59.65 7.52L59.65 7.52Q59.74 7.49 59.84 7.43L59.84 7.43L59.84 7.43Q59.93 7.38 59.98 7.36L59.98 7.36L59.98 7.36Q60.03 7.34 60.11 7.32L60.11 7.32L60.11 7.32Q60.19 7.31 60.27 7.31L60.27 7.31L60.27 7.31Q60.44 7.31 60.44 7.71L60.44 7.71L60.44 7.71Q60.44 7.81 60.40 8.04L60.40 8.04L60.40 8.04Q60.37 8.26 60.37 8.30L60.37 8.30L60.37 8.30Q60.37 8.47 60.45 8.47L60.45 8.47L60.45 8.47Q60.47 8.47 60.54 8.36L60.54 8.36L60.54 8.36Q60.62 8.26 60.75 8.11L60.75 8.11L60.75 8.11Q60.89 7.97 61.08 7.82L61.08 7.82L61.08 7.82Q61.28 7.67 61.61 7.57L61.61 7.57L61.61 7.57Q61.94 7.46 62.34 7.46L62.34 7.46L62.34 7.46Q62.86 7.46 63.24 7.64L63.24 7.64L63.24 7.64Q63.62 7.81 63.76 8.02L63.76 8.02L63.76 8.02Q63.91 8.22 64.01 8.39L64.01 8.39L64.01 8.39Q64.11 8.57 64.13 8.57L64.13 8.57L64.13 8.57Q64.15 8.57 64.39 8.28L64.39 8.28L64.39 8.28Q64.64 7.99 65.09 7.71L65.09 7.71L65.09 7.71Q65.55 7.42 66.05 7.42L66.05 7.42L66.05 7.42Q67.07 7.42 67.63 8.02L67.63 8.02L67.63 8.02Q68.18 8.62 68.28 9.52L68.28 9.52L68.28 9.52Q68.36 10.35 68.36 11.30L68.36 11.30L68.36 11.75L68.36 11.75Q68.36 12.38 68.43 12.66L68.43 12.66L68.43 12.66Q68.50 12.94 68.75 13.02L68.75 13.02L68.75 13.02Q68.77 13.02 68.88 13.04L68.88 13.04L68.88 13.04Q68.99 13.06 69.07 13.08L69.07 13.08L69.07 13.08Q69.15 13.09 69.22 13.15L69.22 13.15L69.22 13.15Q69.29 13.20 69.29 13.29L69.29 13.29L69.29 13.29Q69.29 13.50 68.82 13.50L68.82 13.50L68.82 13.50Q68.74 13.50 68.40 13.47L68.40 13.47L68.40 13.47Q68.05 13.44 67.90 13.44L67.90 13.44L67.90 13.44Q67.69 13.44 67.36 13.47L67.36 13.47L67.36 13.47Q67.03 13.50 66.89 13.50L66.89 13.50L66.89 13.50Q66.56 13.50 66.56 13.36L66.56 13.36L66.56 13.36Q66.56 13.20 66.85 13.09L66.85 13.09L66.85 13.09Q67.14 12.98 67.20 12.85L67.20 12.85L67.20 12.85Q67.26 12.70 67.26 12.21L67.26 12.21L67.26 11.98L67.26 11.98Q67.26 11.51 67.25 11.15L67.25 11.15L67.25 11.15Q67.24 10.79 67.24 10.49L67.24 10.49L67.24 10.49Q67.24 10.19 67.22 9.97L67.22 9.97L67.22 9.97Q67.20 9.74 67.20 9.58L67.20 9.58L67.20 9.58Q67.20 9.42 67.16 9.29L67.16 9.29L67.16 9.29Q67.12 9.16 67.11 9.09L67.11 9.09L67.11 9.09Q67.10 9.02 67.03 8.92L67.03 8.92L67.03 8.92Q66.96 8.82 66.95 8.79L66.95 8.79L66.95 8.79Q66.93 8.76 66.84 8.65L66.84 8.65L66.84 8.65Q66.75 8.54 66.72 8.51L66.72 8.51L66.72 8.51Q66.36 8.08 65.67 8.08L65.67 8.08L65.67 8.08Q65.35 8.08 65.00 8.25L65.00 8.25L65.00 8.25Q64.65 8.41 64.44 8.59L64.44 8.59L64.44 8.59Q64.23 8.76 64.23 8.83L64.23 8.83L64.23 8.83Q64.23 8.88 64.25 9.03L64.25 9.03L64.25 9.03Q64.27 9.18 64.30 9.58L64.30 9.58L64.30 9.58Q64.32 9.98 64.32 10.61L64.32 10.61L64.32 11.80L64.32 11.80Q64.32 12.45 64.50 12.75L64.50 12.75L64.50 12.75Q64.68 13.05 65.28 13.13L65.28 13.13L65.28 13.13Q65.42 13.15 65.48 13.22L65.48 13.22L65.48 13.22Q65.53 13.30 65.53 13.36L65.53 13.36L65.53 13.36Q65.53 13.51 65.27 13.51L65.27 13.51L65.27 13.51Q65.17 13.51 64.82 13.47L64.82 13.47L64.82 13.47Q64.47 13.44 64.25 13.44L64.25 13.44L64.25 13.44Q64.11 13.44 63.56 13.47L63.56 13.47L63.56 13.47Q63.01 13.51 62.97 13.51L62.97 13.51L62.97 13.51Q62.66 13.51 62.66 13.33L62.66 13.33L62.66 13.33Q62.66 13.23 62.72 13.18L62.72 13.18L62.72 13.18Q62.78 13.13 62.99 13.05L62.99 13.05L62.99 13.05Q63.07 13.02 63.12 12.99L63.12 12.99L63.12 12.99Q63.17 12.96 63.24 12.75L63.24 12.75L63.24 12.75Q63.31 12.54 63.31 12.18L63.31 12.18L63.31 12.18Q63.31 12.12 63.31 12.07L63.31 12.07L63.31 12.07Q63.31 12.01 63.31 11.92L63.31 11.92L63.31 11.92Q63.32 11.83 63.32 11.50L63.32 11.50L63.32 11.50Q63.32 11.17 63.32 10.65L63.32 10.65L63.32 10.65Q63.32 10.35 63.31 10.16L63.31 10.16L63.31 10.16Q63.31 9.97 63.31 9.91L63.31 9.91L63.31 9.91Q63.31 9.86 63.30 9.82L63.30 9.82L63.30 9.82Q63.29 9.79 63.29 9.77L63.29 9.77L63.29 9.77Q63.29 9.03 62.92 8.58L62.92 8.58L62.92 8.58Q62.54 8.13 61.87 8.13L61.87 8.13L61.87 8.13Q61.28 8.13 60.82 8.44L60.82 8.44L60.82 8.44Q60.35 8.75 60.35 9.16L60.35 9.16L60.35 9.35L60.35 11.98L60.35 11.98Q60.35 12.49 60.54 12.75L60.54 12.75L60.54 12.75Q60.72 13.02 60.94 13.05L60.94 13.05L60.94 13.05Q61.17 13.09 61.35 13.13L61.35 13.13L61.35 13.13Q61.53 13.17 61.53 13.27L61.53 13.27L61.53 13.27Q61.53 13.40 61.49 13.44L61.49 13.44L61.49 13.44Q61.45 13.48 61.24 13.48L61.24 13.48L61.24 13.48Q61.18 13.48 60.80 13.46L60.80 13.46L60.80 13.46Q60.41 13.44 60.06 13.44L60.06 13.44L60.06 13.44Q59.74 13.44 59.37 13.46L59.37 13.46L59.37 13.46Q59.01 13.48 58.95 13.48L58.95 13.48L58.95 13.48Q58.62 13.48 58.62 13.27L58.62 13.27L58.62 13.27Q58.62 13.17 58.70 13.13L58.70 13.13L58.70 13.13Q58.77 13.09 58.87 13.08L58.87 13.08L58.87 13.08Q58.97 13.06 59.08 12.96L59.08 12.96L59.08 12.96Q59.19 12.85 59.26 12.66L59.26 12.66L59.26 12.66Q59.37 12.26 59.37 10.53L59.37 10.53L59.37 10.53Q59.37 10.26 59.37 9.69L59.37 9.69L59.37 9.69Q59.36 9.11 59.36 8.82L59.36 8.82L59.36 8.82Q59.36 8.48 59.21 8.34L59.21 8.34L59.21 8.34Q59.07 8.20 58.89 8.21L58.89 8.21L58.89 8.21Q58.72 8.22 58.57 8.18L58.57 8.18L58.57 8.18Q58.42 8.15 58.42 8.01ZM70.24 12.25L70.24 12.25L70.24 12.25Q70.24 11.75 70.45 11.40L70.45 11.40L70.45 11.40Q70.66 11.06 71.09 10.87L71.09 10.87L71.09 10.87Q71.51 10.68 71.97 10.57L71.97 10.57L71.97 10.57Q72.44 10.46 73.09 10.35L73.09 10.35L73.09 10.35Q73.18 10.33 73.22 10.32L73.22 10.32L73.22 10.32Q73.26 10.32 73.33 10.31L73.33 10.31L73.33 10.31Q73.40 10.30 73.46 10.29L73.46 10.29L73.46 10.29Q73.56 10.28 73.59 10.26L73.59 10.26L73.59 10.26Q73.63 10.25 73.66 10.20L73.66 10.20L73.66 10.20Q73.70 10.15 73.70 10.07L73.70 10.07L73.70 10.07Q73.70 9.93 73.71 9.68L73.71 9.68L73.71 9.68Q73.72 9.44 73.72 9.34L73.72 9.34L73.72 9.34Q73.72 8.54 73.26 8.18L73.26 8.18L73.26 8.18Q72.80 7.83 72.37 7.83L72.37 7.83L72.37 7.83Q71.36 7.83 71.36 8.67L71.36 8.67L71.36 8.67Q71.36 8.78 71.39 8.95L71.39 8.95L71.39 8.95Q71.41 9.11 71.41 9.17L71.41 9.17L71.41 9.17Q71.41 9.45 71.16 9.45L71.16 9.45L71.16 9.45Q71.08 9.45 70.95 9.43L70.95 9.43L70.95 9.43Q70.83 9.41 70.67 9.36L70.67 9.36L70.67 9.36Q70.50 9.31 70.40 9.19L70.40 9.19L70.40 9.19Q70.29 9.07 70.29 8.90L70.29 8.90L70.29 8.90Q70.29 8.36 71.03 7.86L71.03 7.86L71.03 7.86Q71.76 7.36 72.65 7.36L72.65 7.36L72.65 7.36Q73.25 7.36 73.67 7.50L73.67 7.50L73.67 7.50Q74.09 7.64 74.29 7.82L74.29 7.82L74.29 7.82Q74.49 7.99 74.61 8.28L74.61 8.28L74.61 8.28Q74.72 8.57 74.73 8.73L74.73 8.73L74.73 8.73Q74.75 8.89 74.75 9.13L74.75 9.13L74.75 9.13Q74.75 10.14 74.71 10.72L74.71 10.72L74.71 10.72Q74.68 11.30 74.68 11.73L74.68 11.73L74.68 11.73Q74.68 12.25 74.79 12.55L74.79 12.55L74.79 12.55Q74.90 12.85 75.05 12.94L75.05 12.94L75.05 12.94Q75.21 13.02 75.36 13.03L75.36 13.03L75.36 13.03Q75.52 13.05 75.63 13.09L75.63 13.09L75.63 13.09Q75.74 13.13 75.74 13.26L75.74 13.26L75.74 13.26Q75.74 13.55 74.86 13.55L74.86 13.55L74.86 13.55Q74.49 13.55 74.23 13.36L74.23 13.36L74.23 13.36Q73.98 13.16 73.86 12.97L73.86 12.97L73.86 12.97Q73.75 12.78 73.74 12.78L73.74 12.78L73.74 12.78Q73.72 12.78 73.63 12.87L73.63 12.87L73.63 12.87Q73.53 12.96 73.35 13.09L73.35 13.09L73.35 13.09Q73.18 13.22 72.96 13.34L72.96 13.34L72.96 13.34Q72.74 13.47 72.46 13.56L72.46 13.56L72.46 13.56Q72.17 13.65 71.89 13.65L71.89 13.65L71.89 13.65Q70.99 13.65 70.59 13.23L70.59 13.23L70.59 13.23Q70.24 12.88 70.24 12.25ZM71.33 12.04L71.33 12.04L71.33 12.04Q71.33 12.52 71.61 12.80L71.61 12.80L71.61 12.80Q71.89 13.09 72.41 13.09L72.41 13.09L72.41 13.09Q72.77 13.09 73.03 12.98L73.03 12.98L73.03 12.98Q73.29 12.87 73.42 12.73L73.42 12.73L73.42 12.73Q73.54 12.59 73.61 12.36L73.61 12.36L73.61 12.36Q73.68 12.12 73.69 12.00L73.69 12.00L73.69 12.00Q73.70 11.87 73.70 11.66L73.70 11.66L73.70 10.65L73.70 10.65Q73.70 10.53 73.60 10.53L73.60 10.53L73.60 10.53Q73.57 10.53 73.53 10.54L73.53 10.54L73.53 10.54Q73.49 10.56 73.46 10.56L73.46 10.56L73.46 10.56Q73.14 10.61 73.05 10.63L73.05 10.63L73.05 10.63Q72.97 10.64 72.66 10.71L72.66 10.71L72.66 10.71Q72.35 10.78 72.23 10.84L72.23 10.84L72.23 10.84Q72.11 10.89 71.90 11.01L71.90 11.01L71.90 11.01Q71.68 11.13 71.59 11.26L71.59 11.26L71.59 11.26Q71.50 11.40 71.41 11.60L71.41 11.60L71.41 11.60Q71.33 11.80 71.33 12.04ZM76.37 10.71L76.37 10.71L76.37 10.71Q76.37 9.35 77.27 8.33L77.27 8.33L77.27 8.33Q78.18 7.31 79.77 7.31L79.77 7.31L79.77 7.31Q80.14 7.31 80.73 7.51L80.73 7.51L80.73 7.51Q81.33 7.71 81.37 7.71L81.37 7.71L81.37 7.71Q81.44 7.71 81.44 7.21L81.44 7.21L81.44 7.21Q81.44 6.15 81.45 5.82L81.45 5.82L81.45 5.82Q81.47 5.49 81.47 5.40L81.47 5.40L81.47 5.40Q81.47 4.96 81.45 4.75L81.45 4.75L81.45 4.75Q81.44 4.54 81.38 4.28L81.38 4.28L81.38 4.28Q81.31 4.03 81.15 3.93L81.15 3.93L81.15 3.93Q80.99 3.84 80.72 3.84L80.72 3.84L80.57 3.84L80.57 3.84Q80.36 3.84 80.32 3.82L80.32 3.82L80.32 3.82Q80.28 3.81 80.28 3.72L80.28 3.72L80.28 3.71L80.28 3.71Q80.28 3.61 80.42 3.56L80.42 3.56L80.42 3.56Q80.56 3.51 80.98 3.38L80.98 3.38L80.98 3.38Q81.41 3.25 81.86 3.04L81.86 3.04L81.86 3.04Q81.90 3.02 82.03 2.96L82.03 2.96L82.03 2.96Q82.15 2.90 82.24 2.86L82.24 2.86L82.24 2.86Q82.33 2.83 82.40 2.83L82.40 2.83L82.40 2.83Q82.57 2.83 82.57 3.11L82.57 3.11L82.57 3.11Q82.57 3.15 82.48 4.30L82.48 4.30L82.48 4.30Q82.39 5.45 82.39 6.15L82.39 6.15L82.39 6.15Q82.39 7.59 82.38 9.27L82.38 9.27L82.38 9.27Q82.36 10.95 82.36 11.26L82.36 11.26L82.36 11.26Q82.36 12.21 82.45 12.53L82.45 12.53L82.45 12.53Q82.54 12.85 82.85 12.95L82.85 12.95L82.85 12.95Q82.89 12.96 83.09 13.00L83.09 13.00L83.09 13.00Q83.29 13.03 83.37 13.08L83.37 13.08L83.37 13.08Q83.45 13.13 83.45 13.24L83.45 13.24L83.45 13.24Q83.45 13.41 82.38 13.50L82.38 13.50L82.38 13.50Q82.15 13.51 81.86 13.57L81.86 13.57L81.86 13.57Q81.56 13.64 81.49 13.64L81.49 13.64L81.49 13.64Q81.34 13.64 81.34 13.48L81.34 13.48L81.34 13.48Q81.34 13.44 81.32 13.27L81.32 13.27L81.32 13.27Q81.30 13.10 81.30 12.96L81.30 12.96L81.30 12.96Q81.30 12.73 81.17 12.73L81.17 12.73L81.17 12.73Q81.13 12.73 80.97 12.87L80.97 12.87L80.97 12.87Q80.81 13.01 80.60 13.18L80.60 13.18L80.60 13.18Q80.39 13.36 79.99 13.50L79.99 13.50L79.99 13.50Q79.59 13.64 79.13 13.64L79.13 13.64L79.13 13.64Q77.83 13.64 77.10 12.77L77.10 12.77L77.10 12.77Q76.37 11.91 76.37 10.71ZM77.38 10.05L77.38 10.05L77.38 10.05Q77.38 11.12 78.03 12.01L78.03 12.01L78.03 12.01Q78.68 12.91 79.70 12.91L79.70 12.91L79.70 12.91Q80.33 12.91 80.85 12.59L80.85 12.59L80.85 12.59Q81.37 12.26 81.37 11.80L81.37 11.80L81.38 9.41L81.38 9.41Q81.38 8.55 80.99 8.33L80.99 8.33L80.99 8.33Q79.95 7.71 79.32 7.71L79.32 7.71L79.32 7.71Q78.41 7.71 77.90 8.38L77.90 8.38L77.90 8.38Q77.38 9.04 77.38 10.05Z"></path></g><!----><!----></svg>